<?xml version="1.0" standalone="no"?>
<!DOCTYPE svg PUBLIC "-//W3C//DTD SVG 20010904//EN"
 "http://www.w3.org/TR/2001/REC-SVG-20010904/DTD/svg10.dtd">
<svg version="1.0" xmlns="http://www.w3.org/2000/svg"
 width="516.000000pt" height="516.000000pt" viewBox="0 0 516.000000 516.000000"
 preserveAspectRatio="xMidYMid meet">
<metadata>
Created by potrace 1.11, written by Peter Selinger 2001-2013
</metadata>
<g transform="translate(0.000000,516.000000) scale(0.100000,-0.100000)"
fill="#000000" stroke="none">
<path d="M866 4700 c-3 -19 -8 -48 -11 -65 -3 -16 -14 -88 -25 -160 -12 -71
-22 -137 -25 -145 -2 -8 -6 -33 -10 -55 -3 -22 -12 -83 -21 -135 -8 -52 -17
-106 -19 -120 -2 -14 -16 -97 -30 -185 -14 -88 -28 -171 -30 -185 -2 -14 -11
-68 -20 -120 -17 -103 -26 -154 -30 -185 -9 -62 -36 -232 -40 -249 -2 -12 -7
-39 -10 -61 -3 -22 -21 -135 -41 -252 -19 -117 -37 -225 -39 -240 -2 -15 -6
-41 -9 -58 -2 -16 -7 -48 -11 -70 -3 -22 -10 -62 -15 -90 -5 -27 -12 -68 -15
-90 -3 -23 -7 -50 -9 -62 -3 -11 -7 -38 -10 -59 -3 -22 -8 -50 -11 -64 -2 -14
-7 -43 -10 -65 -3 -22 -10 -62 -15 -90 -6 -27 -12 -63 -14 -80 -4 -30 -24
-158 -32 -205 -2 -14 -11 -68 -19 -120 -9 -52 -18 -106 -20 -120 -3 -14 -18
-111 -35 -215 -17 -105 -33 -201 -35 -215 -2 -14 -9 -56 -15 -95 -6 -38 -13
-80 -16 -92 l-4 -23 149 0 c82 0 152 4 155 8 2 4 7 30 10 57 4 27 8 57 10 65
3 8 7 35 10 60 4 25 8 56 10 70 3 14 10 61 16 105 7 44 14 89 16 100 2 10 6
35 9 55 3 20 7 45 9 55 2 11 7 43 10 70 4 28 9 62 11 78 11 61 14 84 20 127 3
25 10 70 15 100 5 30 12 71 15 90 3 19 7 46 10 60 2 14 7 45 10 70 3 25 10 70
15 100 14 81 29 180 35 225 3 22 15 96 26 165 36 230 48 305 54 350 3 25 14
97 25 160 10 63 21 133 24 155 5 34 79 514 91 585 2 14 7 48 11 75 6 49 10 63
18 54 1 -2 76 -177 165 -389 89 -212 171 -404 182 -427 10 -24 19 -45 19 -47
0 -3 13 -33 29 -68 15 -35 37 -84 47 -110 10 -27 21 -48 24 -48 3 0 50 107
105 238 54 130 109 260 121 287 12 28 68 160 124 295 56 135 106 250 112 255
6 7 9 7 7 0 -2 -8 19 -163 26 -195 3 -11 15 -88 20 -125 3 -22 14 -92 25 -155
18 -112 24 -149 35 -227 3 -21 8 -49 11 -63 6 -34 4 -18 69 -430 2 -14 11 -70
20 -125 9 -55 18 -116 21 -135 3 -19 7 -42 9 -50 2 -8 7 -37 10 -65 3 -27 10
-70 15 -95 5 -25 12 -67 15 -93 4 -27 8 -57 10 -67 2 -9 6 -35 10 -56 3 -22 8
-50 10 -64 6 -35 66 -409 70 -440 3 -21 25 -155 40 -250 2 -14 6 -38 9 -55 2
-16 12 -73 20 -125 14 -84 23 -142 31 -190 1 -12 27 -15 148 -18 167 -3 155
-11 137 89 -9 49 -13 76 -25 149 -2 14 -11 68 -20 120 -9 52 -18 109 -21 125
-2 17 -9 55 -14 85 -5 30 -11 69 -14 85 -8 55 -32 204 -42 258 -3 17 -7 43 -9
57 -3 22 -59 366 -70 430 -2 14 -6 39 -9 55 -2 17 -12 75 -21 130 -9 55 -19
111 -21 125 -2 14 -5 35 -8 47 -2 11 -8 43 -12 70 -3 26 -8 57 -10 68 -2 11
-11 63 -19 115 -9 52 -18 111 -21 130 -4 19 -8 49 -11 65 -2 17 -12 80 -23
140 -10 61 -21 127 -24 148 -3 21 -22 133 -41 250 -20 116 -38 228 -41 247 -2
19 -7 44 -9 56 -3 12 -7 39 -10 60 -3 21 -10 62 -15 89 -5 28 -12 70 -15 95
-3 25 -10 68 -15 95 -5 28 -12 66 -14 85 -3 19 -8 46 -10 60 -3 14 -14 84 -26
155 -11 72 -23 141 -25 155 -3 14 -8 48 -11 75 -4 28 -10 59 -14 70 l-8 20 -8
-20 c-4 -11 -135 -317 -290 -680 l-283 -659 -27 59 c-14 33 -34 78 -44 100
-10 22 -41 94 -70 160 -29 66 -63 144 -76 173 -13 29 -36 80 -50 115 -44 103
-315 720 -324 737 -6 10 -10 5 -14 -20z"/>
<path d="M3030 4659 c-1 -31 -1 -3819 0 -3882 l0 -48 213 2 c276 2 418 23 595
88 303 110 595 358 766 650 96 163 162 360 183 546 9 78 9 302 1 385 -56 545
-430 1015 -950 1191 -75 25 -75 24 -13 94 78 88 135 235 137 352 5 266 -112
462 -339 570 -120 58 -158 65 -385 70 l-208 5 0 -23z m406 -265 c58 -20 132
-71 166 -116 75 -99 92 -279 37 -395 -26 -54 -87 -116 -140 -143 -42 -22 -158
-51 -171 -43 -5 2 -8 164 -8 359 l0 354 33 0 c18 0 56 -7 83 -16z m39 -988
c475 -46 866 -373 985 -822 101 -383 37 -784 -171 -1065 -214 -288 -523 -459
-877 -485 l-92 -7 0 1195 0 1195 48 -3 c26 -1 74 -5 107 -8z"/>
</g>
</svg>
